<?xml version="1.0" encoding="UTF-8" standalone="no"?>
<!-- Created with Inkscape (http://www.inkscape.org/) -->

<svg
   xmlns:dc="http://purl.org/dc/elements/1.1/"
   xmlns:cc="http://creativecommons.org/ns#"
   xmlns:rdf="http://www.w3.org/1999/02/22-rdf-syntax-ns#"
   xmlns:svg="http://www.w3.org/2000/svg"
   xmlns="http://www.w3.org/2000/svg"
   xmlns:sodipodi="http://sodipodi.sourceforge.net/DTD/sodipodi-0.dtd"
   xmlns:inkscape="http://www.inkscape.org/namespaces/inkscape"
   version="1.1"
   id="svg2"
   width="40"
   height="15"
   viewBox="0 0 39.999999 15"
   sodipodi:docname="seesaw.svg"
   inkscape:version="0.92.4 (5da689c313, 2019-01-14)">
  <metadata
     id="metadata8">
    <rdf:RDF>
      <cc:Work
         rdf:about="">
        <dc:format>image/svg+xml</dc:format>
        <dc:type
           rdf:resource="http://purl.org/dc/dcmitype/StillImage" />
        <dc:title></dc:title>
      </cc:Work>
    </rdf:RDF>
  </metadata>
  <defs
     id="defs6" />
  <sodipodi:namedview
     pagecolor="#ffffff"
     bordercolor="#666666"
     borderopacity="1"
     objecttolerance="10"
     gridtolerance="10"
     guidetolerance="10"
     inkscape:pageopacity="0"
     inkscape:pageshadow="2"
     inkscape:window-width="1600"
     inkscape:window-height="837"
     id="namedview4"
     showgrid="false"
     inkscape:zoom="10.24"
     inkscape:cx="28.00838"
     inkscape:cy="11.961825"
     inkscape:window-x="-8"
     inkscape:window-y="-8"
     inkscape:window-maximized="1"
     inkscape:current-layer="svg2" />
  <path
     style="fill:#000000;stroke-width:0.03030483"
     d="m 15.757663,13.904349 c 0,-0.01765 0.564056,-1.009781 1.253457,-2.204707 1.899123,-3.2917027 2.675693,-4.6640258 2.651732,-4.6860564 -0.02617,-0.024065 -8.902546,1.0264595 -12.8099673,1.5160466 -0.872438,0.1093165 -1.5930641,0.1919472 -1.6013909,0.1836126 -0.01974,-0.019698 -0.098287,-0.8667265 -0.099475,-1.0726855 -5.041e-4,-0.087528 0.0099,-0.1591012 0.023126,-0.1591012 0.013222,0 0.8333544,-0.102283 1.8225154,-0.2272834 0.9891603,-0.12501 1.810199,-0.2272926 1.8245303,-0.2272926 0.058137,0 0.024804,-0.386236 -0.1843988,-2.1365163 C 8.4640641,3.4368893 8.4446949,2.992246 8.5478402,2.8253492 8.6280966,2.6954889 8.8275305,2.5778564 9.0097956,2.5528711 c 0.1719881,-0.023601 0.3675412,0.042648 0.4829116,0.1636355 0.125309,0.1313656 0.157985,0.3227553 0.4927212,2.8860282 0.1824346,1.3970112 0.1441506,1.2471087 0.3133386,1.2269272 0.07726,-0.00929 0.84277,-0.097591 1.701144,-0.1963886 1.415096,-0.1628736 6.359534,-0.7532939 8.515556,-1.0168427 0.475022,-0.058072 1.25915,-0.153935 1.742506,-0.21303 5.34144,-0.6530925 7.383325,-0.9138166 7.413298,-0.9466162 0.02454,-0.026853 -0.03817,-0.6781243 -0.169786,-1.7633442 -0.278348,-2.29487396 -0.271916,-2.41360285 0.142192,-2.62440285 0.231705,-0.11794838 0.418038,-0.08613372 0.640763,0.10943723 0.18826,0.16529871 0.150405,-0.0231363 0.428047,2.13115482 0.278834,2.1635548 0.248359,1.9899865 0.349377,1.9899865 0.125687,0 0.808692,-0.074241 2.233313,-0.2426983 0.703542,-0.08316 1.319417,-0.1512683 1.368612,-0.1512683 0.102487,0 0.102335,-5.203e-4 0.15511,0.541128 0.04102,0.4210146 0.03875,0.6267228 -0.0073,0.6640288 -0.02083,0.016911 -0.187886,0.047016 -0.371229,0.0669 -0.183343,0.019977 -0.885649,0.1028309 -1.56068,0.1841979 -1.172435,0.1413356 -1.826902,0.2212345 -4.348689,0.5309072 -1.600313,0.1965188 -7.547741,0.9389971 -8.106445,1.012011 -0.258346,0.033729 -0.494012,0.061418 -0.523703,0.061511 -0.02969,0 -0.0609,0.018118 -0.06935,0.04014 -0.02534,0.066063 0.82443,1.5828814 2.769779,4.9441217 0.617066,1.066182 1.115333,1.949196 1.107262,1.962261 -0.02359,0.03819 -7.950868,0.02982 -7.950868,-0.0083 z"
     id="path817-9-9"
     inkscape:connector-curvature="0" />
</svg>
