<?xml version="1.0" encoding="UTF-8" standalone="no"?>
<!-- Created with Inkscape (http://www.inkscape.org/) -->

<svg
   xmlns:dc="http://purl.org/dc/elements/1.1/"
   xmlns:cc="http://creativecommons.org/ns#"
   xmlns:rdf="http://www.w3.org/1999/02/22-rdf-syntax-ns#"
   xmlns:svg="http://www.w3.org/2000/svg"
   xmlns="http://www.w3.org/2000/svg"
   xmlns:sodipodi="http://sodipodi.sourceforge.net/DTD/sodipodi-0.dtd"
   xmlns:inkscape="http://www.inkscape.org/namespaces/inkscape"
   version="1.1"
   id="svg2"
   width="43"
   height="40"
   viewBox="0 0 43.000001 40.000001"
   sodipodi:docname="shoe.svg"
   inkscape:version="0.92.4 (5da689c313, 2019-01-14)">
  <metadata
     id="metadata8">
    <rdf:RDF>
      <cc:Work
         rdf:about="">
        <dc:format>image/svg+xml</dc:format>
        <dc:type
           rdf:resource="http://purl.org/dc/dcmitype/StillImage" />
        <dc:title></dc:title>
      </cc:Work>
    </rdf:RDF>
  </metadata>
  <defs
     id="defs6" />
  <sodipodi:namedview
     pagecolor="#ffffff"
     bordercolor="#666666"
     borderopacity="1"
     objecttolerance="10"
     gridtolerance="10"
     guidetolerance="10"
     inkscape:pageopacity="0"
     inkscape:pageshadow="2"
     inkscape:window-width="1600"
     inkscape:window-height="837"
     id="namedview4"
     showgrid="false"
     inkscape:zoom="10.24"
     inkscape:cx="22.812813"
     inkscape:cy="18.451122"
     inkscape:window-x="-8"
     inkscape:window-y="-8"
     inkscape:window-maximized="1"
     inkscape:current-layer="svg2" />
  <path
     style="fill:#000000;stroke-width:0.21050164"
     d="m 26.7736,40.091463 c -0.892069,-0.09331 -0.909992,-0.138064 -0.473625,-1.182458 0.403849,-0.966559 0.400257,-1.40074 -0.01157,-1.40074 -0.194819,0 -0.53697,0.474035 -0.845172,1.170946 -0.5748,1.299745 -0.423321,1.27056 -2.511244,0.483828 -0.578875,-0.218122 -1.283128,-0.574875 -1.565006,-0.792783 -0.561571,-0.434132 -0.565698,-0.42083 0.596893,-1.924237 0.437795,-0.566136 0.310485,-1.144223 -0.206467,-0.937527 -0.164406,0.06574 -0.574688,0.491366 -0.911739,0.94584 -0.337051,0.454475 -0.698637,0.77328 -0.803526,0.708456 -0.104891,-0.06483 -0.721086,-0.835058 -1.369329,-1.711627 L 17.49419,33.857397 18.265974,33.20942 c 0.42448,-0.35639 0.771778,-0.760797 0.771774,-0.898685 -2.1e-5,-0.540006 -0.465348,-0.486316 -1.263398,0.145762 l -0.834922,0.661282 -1.385326,-1.385353 -1.385325,-1.385344 0.680219,-0.576847 c 0.374122,-0.317267 0.853924,-0.700634 1.06623,-0.851918 0.212301,-0.151284 0.386006,-0.411779 0.386006,-0.578881 0,-0.542718 -0.722047,-0.322349 -1.763403,0.538191 -0.560416,0.463109 -1.087178,0.842019 -1.170587,0.842019 -0.139459,0 -1.526053,-0.750554 -4.7299657,-2.56029 C 6.9998862,26.234469 4.451248,23.706132 3.0839464,21.650257 1.417485,19.144565 1.5977519,18.45139 4.265983,17.105019 5.3062722,16.580091 6.0066435,16.07476 6.2330239,15.685757 7.001305,14.365578 8.4119523,12.822344 9.67301,11.922461 c 1.81473,-1.294989 3.367324,-1.814421 5.539856,-1.853411 1.696137,-0.03047 1.770831,-0.01127 2.287425,0.587697 0.469009,0.543775 0.51875,0.748212 0.408509,1.679026 -0.149459,1.261971 0.311144,2.391973 1.408577,3.455664 l 0.705219,0.683538 1.10181,-0.741473 c 1.322223,-0.889808 2.360076,-1.227385 3.486805,-1.134132 l 0.837238,0.06931 0.741511,2.447203 c 0.407834,1.345966 0.86683,2.595449 1.019997,2.776625 0.153167,0.181167 0.253419,0.500821 0.222785,0.710339 -0.06912,0.472718 0.199263,1.329929 0.547652,1.749203 0.144305,0.173664 0.318802,0.684561 0.387767,1.13533 0.06897,0.450761 0.327533,1.034741 0.574596,1.297738 0.301618,0.321054 0.404266,0.619756 0.312424,0.909121 -0.147989,0.466288 0.186677,1.2543 0.69046,1.625786 0.184774,0.136249 0.267172,0.411294 0.200082,0.667853 -0.15247,0.583055 0.514353,1.637234 1.361522,2.152438 0.376952,0.229238 1.680287,0.804455 2.896299,1.278256 3.549719,1.383098 4.208329,1.71614 4.858804,2.457001 1.066634,1.214849 0.784423,2.256956 -1.101815,4.068614 -1.46743,1.40941 -2.76692,1.998615 -4.886999,2.215828 l -1.362598,0.139603 0.115266,-0.859374 c 0.137826,-1.027596 -0.02267,-1.545816 -0.430334,-1.389384 -0.17155,0.06583 -0.356896,0.556247 -0.436218,1.154218 l -0.137927,1.039753 -1.729373,-0.03539 c -0.951158,-0.01947 -2.084594,-0.07255 -2.518751,-0.11796 z m 10.300591,-3.369765 c 0.818944,-0.437794 1.540035,-1.180338 1.540035,-1.585859 0,-0.09554 -0.248309,-0.403841 -0.551796,-0.685109 -0.548684,-0.508512 -0.554684,-0.509116 -1.065349,-0.107419 -0.849772,0.66844 -2.646729,0.971711 -3.927315,0.662808 -1.878506,-0.453134 -2.672245,-0.500897 -3.920778,-0.235938 -1.092806,0.231915 -1.303623,0.215879 -2.135992,-0.162474 -0.507937,-0.230882 -1.49187,-0.911475 -2.186521,-1.51243 -1.621266,-1.402581 -2.603513,-1.9029 -3.727989,-1.898884 -1.561781,0.0053 -1.537131,0.170581 0.34708,2.323574 3.164387,3.615787 3.617137,3.78218 10.116908,3.718157 4.344134,-0.04279 4.685556,-0.07478 5.511717,-0.516426 z m -1.362105,-3.190545 c 0.08256,-0.07328 -0.769964,-0.500699 -1.8945,-0.949839 -1.124537,-0.449131 -2.363782,-0.99605 -2.753877,-1.215362 -0.647246,-0.363894 -0.752441,-0.370473 -1.20297,-0.0753 -0.616185,0.403747 -1.016446,0.410273 -1.338825,0.02184 -0.199017,-0.239798 -0.161134,-0.390897 0.184727,-0.736761 0.239296,-0.239296 0.525403,-0.435093 0.635793,-0.435093 0.110393,0 0.04291,-0.274957 -0.149961,-0.611019 -0.3029,-0.527781 -0.444439,-0.5958 -1.03898,-0.499315 -0.970568,0.157502 -1.200577,-0.462844 -0.406406,-1.096102 0.501638,-0.399995 0.544334,-0.52454 0.352664,-1.028673 -0.193904,-0.510016 -0.295535,-0.559047 -0.917173,-0.44242 -0.516193,0.09684 -0.776395,0.03805 -0.994525,-0.224817 -0.259236,-0.312361 -0.235385,-0.404583 0.194694,-0.752852 0.269565,-0.218282 0.621712,-0.396878 0.782547,-0.396878 0.355332,0 0.358163,-0.04641 0.04481,-0.73419 -0.227132,-0.498505 -0.32276,-0.532219 -1.155326,-0.407375 -0.727239,0.109061 -0.933783,0.06817 -1.03892,-0.205846 -0.175942,-0.458502 0.232639,-0.911781 0.967331,-1.07315 0.563962,-0.123866 0.587813,-0.170968 0.383462,-0.757177 -0.149592,-0.42913 -0.326183,-0.594866 -0.563287,-0.52867 -1.15726,0.32308 -1.661798,0.338695 -1.894223,0.05866 -0.393212,-0.473801 -0.0551,-0.960293 0.833734,-1.199633 0.858523,-0.231184 0.934414,-0.330091 0.626492,-0.816477 -0.157845,-0.249336 -0.340088,-0.253308 -1.154946,-0.02519 -1.372419,0.384256 -2.266215,0.166547 -3.795019,-0.924402 -2.635661,-1.880803 -4.034252,-3.993846 -3.857943,-5.828745 0.08483,-0.882893 0.03636,-1.081807 -0.308647,-1.266454 -0.579499,-0.310142 -2.473231,-0.01982 -2.635897,0.404056 -0.199715,0.520453 0.318977,4.598471 0.67163,5.280433 0.481899,0.931906 2.104923,2.456248 3.15811,2.966098 0.518812,0.251159 1.491626,0.534976 2.161811,0.630703 2.293059,0.327537 2.704002,0.706491 3.538538,3.263064 0.277998,0.851636 1.135164,2.758376 1.904814,4.237202 1.247578,2.397124 1.388188,2.787916 1.296333,3.602869 -0.10004,0.887553 -0.07776,0.928824 0.766398,1.42068 0.860845,0.50157 0.883132,0.503274 2.256289,0.172412 1.316662,-0.317241 1.471146,-0.312502 3.052251,0.09368 1.521781,0.390949 2.900853,0.424497 3.289004,0.07997 z M 23.598862,28.217921 c -0.744877,-1.431698 -1.61104,-3.291239 -1.924806,-4.132315 -0.313767,-0.841067 -0.727444,-1.60987 -0.919282,-1.708442 -0.19184,-0.09857 -0.840597,-0.241815 -1.441683,-0.318316 -1.203647,-0.153177 -2.396287,-0.594505 -3.254862,-1.204423 -0.307309,-0.218308 -0.60129,-0.39693 -0.653289,-0.39693 -0.05199,0 0.03626,0.497316 0.196124,1.105147 0.359908,1.368399 0.192523,2.504407 -0.488219,3.313433 l -0.517407,0.614921 0.871233,0.787113 c 0.479175,0.432917 1.4046,1.532102 2.056495,2.442642 0.970308,1.355284 1.262846,1.63276 1.613035,1.529996 1.806089,-0.529992 3.92402,-0.231757 5.164023,0.727188 0.91345,0.706394 0.733311,-0.0026 -0.701362,-2.760014 z M 10.556069,25.36609 c 0.290216,-0.437849 0.178613,-0.592171 -2.3956005,-3.312755 -1.746666,-1.845987 -2.8523591,-2.854464 -3.1315204,-2.856191 -0.5145682,-0.0035 -0.9399371,0.376559 -0.928404,0.828817 0.013132,0.515283 5.3820089,5.951747 5.7966259,5.869601 0.194977,-0.03866 0.49148,-0.276886 0.658899,-0.529472 z m 3.519869,-1.23982 c 0.618187,-0.618198 0.491732,-1.946435 -0.407005,-4.275056 -0.823075,-2.132578 -1.367208,-4.792585 -1.367208,-6.683613 v -1.349296 l -0.789376,0.406909 c -1.949335,1.00484 -4.4731245,3.9227 -4.4731245,5.171557 0,1.1292 1.4696607,2.880657 4.8805345,5.816361 0.7949,0.684164 1.530802,1.243924 1.635336,1.243924 0.104536,0 0.338911,-0.148853 0.520843,-0.330786 z m 9.905515,-6.027967 c 1.047762,-0.280241 1.054911,-0.295002 0.706453,-1.458066 -0.15091,-0.503702 -0.371497,-0.813034 -0.578876,-0.811757 -0.492153,0.0026 -2.394767,0.92871 -2.722016,1.324354 -0.245272,0.296535 -0.190492,0.396657 0.421,0.769472 0.823691,0.502187 0.9236,0.510281 2.173439,0.175997 z"
     id="path817-4"
     inkscape:connector-curvature="0" />
</svg>
